HIERARCHY
ROOT Hips
{
	OFFSET 0.00000 0.00000 0.00000
	CHANNELS 6 Xposition Yposition Zposition Zrotation Yrotation Xrotation 
	JOINT LHipJoint
	{
		OFFSET 0 0 0
		CHANNELS 3 Zrotation Yrotation Xrotation
		JOINT LeftHip
		{
			OFFSET 1.44960 -1.75505 0.85172
			CHANNELS 3 Zrotation Yrotation Xrotation
			JOINT LeftKnee
			{
				OFFSET 2.40573 -6.60971 0.00000
				CHANNELS 3 Zrotation Yrotation Xrotation
				JOINT LeftAnkle
				{
					OFFSET 2.58773 -7.10974 0.00000
					CHANNELS 3 Zrotation Yrotation Xrotation
					JOINT LeftToe
					{
						OFFSET 0.18252 -0.50147 1.77316
						CHANNELS 3 Zrotation Yrotation Xrotation
						End Site
						{
							OFFSET 0.00000 -0.00000 0.92990
						}
					}
				}
			}
		}
	}
	JOINT RHipJoint
	{
		OFFSET 0 0 0
		CHANNELS 3 Zrotation Yrotation Xrotation
		JOINT RightHip
		{
			OFFSET -1.40744 -1.75505 0.85172
			CHANNELS 3 Zrotation Yrotation Xrotation
			JOINT RightKnee
			{
				OFFSET -2.43714 -6.69600 0.00000
				CHANNELS 3 Zrotation Yrotation Xrotation
				JOINT RightAnkle
				{
					OFFSET -2.51650 -6.91404 0.00000
					CHANNELS 3 Zrotation Yrotation Xrotation
					JOINT RightToe
					{
						OFFSET -0.25383 -0.69740 1.96384
						CHANNELS 3 Zrotation Yrotation Xrotation
						End Site
						{
							OFFSET -0.00000 -0.00000 1.04244
						}
					}
				}
			}
		}
	}
	JOINT lowerback
	{
		OFFSET 0 0 0
		CHANNELS 3 Zrotation Yrotation Xrotation
		JOINT Chest
		{
			OFFSET 0.00579 2.14458 -0.24367
			CHANNELS 3 Zrotation Yrotation Xrotation
			JOINT Chest2
			{
				OFFSET 0.05899 2.16316 -0.04515
				CHANNELS 3 Zrotation Yrotation Xrotation
				JOINT lowerneck
				{
					OFFSET 0 0 0
					CHANNELS 3 Zrotation Yrotation Xrotation
					JOINT Neck
					{
						OFFSET -0.01650 1.59577 0.24841
						CHANNELS 3 Zrotation Yrotation Xrotation
						JOINT Head
						{
							OFFSET -0.01016 1.63072 -0.17782
							CHANNELS 3 Zrotation Yrotation Xrotation
							End Site
							{
								OFFSET -0.00250 1.64111 -0.08717
							}
						}
					}
				}
				JOINT LeftCollar
				{
					OFFSET 0 0 0
					CHANNELS 3 Zrotation Yrotation Xrotation
					JOINT LeftShoulder
					{
						OFFSET 3.17745 0.95174 -0.45729
CHANNELS 3 Zrotation Xrotation Yrotation
						JOINT LeftElbow
						{
OFFSET 0 -4.934850 0.000000
CHANNELS 3 Zrotation Xrotation Yrotation
							JOINT LeftWrist
							{
OFFSET 0 -3.417190 -0.000000
CHANNELS 3 Zrotation Xrotation Yrotation
								JOINT lhand
								{
									OFFSET 0 0 0
CHANNELS 3 Zrotation Xrotation Yrotation
									JOINT LFingers
									{
OFFSET 0 -0.624100 -0.000000
CHANNELS 3 Zrotation Xrotation Yrotation
										End Site
										{
OFFSET 0 -0.503170 -0.000000
										}
									}
								}
								JOINT LThumb
								{
OFFSET 0 0.000000 0.000000
CHANNELS 3 Zrotation Xrotation Yrotation
									End Site
									{
OFFSET 0 -0.510850 0.510850
									}
								}
							}
						}
					}
				}
				JOINT RightCollar
				{
					OFFSET 0 0 0
					CHANNELS 3 Zrotation Yrotation Xrotation
					JOINT RightShoulder
					{
						OFFSET -2.87924 1.13038 -0.75204
CHANNELS 3 Zrotation Xrotation Yrotation
						JOINT RightElbow
						{
OFFSET 0 -5.220340 0.000000
CHANNELS 3 Zrotation Xrotation Yrotation
							JOINT RightWrist
							{
OFFSET 0 -3.418090 -0.000000
CHANNELS 3 Zrotation Xrotation Yrotation
								JOINT rhand
								{
									OFFSET 0 0 0
CHANNELS 3 Zrotation Xrotation Yrotation
									JOINT RFingers
									{
OFFSET 0 -0.775340 -0.000000
CHANNELS 3 Zrotation Xrotation Yrotation
										End Site
										{
OFFSET 0 -0.625100 -0.000000
										}
									}
								}
								JOINT RThumb
								{
OFFSET 0 0.000000 0.000000
CHANNELS 3 Zrotation Xrotation Yrotation
									End Site
									{
OFFSET 0 -0.634640 0.634640
									}
								}
							}
						}
					}
				}
			}
		}
	}
}
MOTION
Frames: 5
Frame Time: 0.008333333333333333
-0.431263 17.350219 20.767091 -1.022652 12.295815 7.265784 0.000000 0.000000 0.000000 -11.914147 -9.888809 -3.901369 0.496102 4.515648 12.532044 0.588491 -5.985690 -13.692387 0.180721 -2.737664 -7.549214 0.000000 0.000000 0.000000 26.451072 -0.427494 -4.440670 -0.396172 -4.041480 11.193449 -0.121670 -13.517108 -20.581929 -0.658312 -5.189406 14.449592 3.454805 -2.766700 -0.183416 4.607747 -3.704514 0.207274 2.780949 -1.846517 0.403002 -6.237824 -2.437633 -9.549077 -4.797343 -0.207478 37.860766 -0.908699 -1.556109 14.796111 0.000000 0.000000 0.000000 -0.318519 5.608029 -30.113859 19.165825 -29.624228 5.112583 6.702695 8.224267 -43.152786 0.000000 0.000000 0.000000 -7.125000 0.000000 0.000000 -43.743976 68.598759 26.591017 0.000000 0.000000 0.000000 -6.157354 2.973315 -28.738139 -6.782274 -11.560444 -0.687371 -16.852849 7.246141 -17.736097 0.000000 0.000000 0.000000 7.125000 0.000000 0.000000 7.324163 11.616056 5.747839
-0.438385 17.350774 20.794149 -1.169785 12.178432 7.411861 0.000000 0.000000 0.000000 -11.705586 -9.688388 -3.838838 0.467644 4.386120 12.165577 0.604047 -5.662012 -13.852066 0.270546 -3.345731 -9.242832 0.000000 0.000000 0.000000 26.645069 0.082261 -4.574691 -0.412868 -4.124698 11.427766 -0.137503 -13.677499 -20.957375 -0.698628 -5.336593 14.872515 3.689743 -2.739229 -0.186536 4.733951 -3.666994 0.184863 2.781545 -1.827185 0.374642 -7.046136 -2.455721 -9.472977 -4.069739 -0.298267 37.995767 -0.479542 -1.616282 14.858400 0.000000 0.000000 0.000000 -0.248896 5.573580 -31.080262 19.466991 -29.994425 5.262427 7.168057 7.751322 -42.895860 0.000000 0.000000 0.000000 -7.125000 0.000000 0.000000 -42.809573 68.568641 25.917207 0.000000 0.000000 0.000000 -6.138488 4.034301 -30.005414 -6.611447 -11.277940 -0.653624 -17.212395 8.030361 -17.522298 0.000000 0.000000 0.000000 7.125000 0.000000 0.000000 7.079276 11.795671 5.526021
-0.435304 17.334499 20.817706 -1.217784 12.195974 7.415179 0.000000 0.000000 0.000000 -11.656283 -9.517866 -3.771114 0.463624 4.367770 12.113612 0.587955 -5.545367 -13.663326 0.267166 -3.324803 -9.184355 0.000000 0.000000 0.000000 26.760286 -0.179029 -4.551649 -0.421825 -4.168532 11.551362 -0.214976 -13.312218 -21.298477 -0.742500 -5.504534 15.353348 3.783408 -3.234211 -0.241586 4.651930 -4.344704 0.405027 2.631007 -2.162941 0.633435 -6.507874 -1.904116 -9.727987 -3.999109 0.364811 37.921056 -0.447016 -1.257014 14.857051 0.000000 0.000000 0.000000 -0.083164 5.736751 -30.136646 20.156804 -30.830881 5.611465 7.433560 7.843811 -42.570887 0.000000 0.000000 0.000000 -7.125000 0.000000 0.000000 -41.949564 68.422911 25.198065 0.000000 0.000000 0.000000 -5.932566 4.309796 -31.276209 -6.357120 -10.856467 -0.604685 -17.203583 9.778156 -17.252398 0.000000 0.000000 0.000000 7.125000 0.000000 0.000000 7.075134 12.074167 5.481656
-0.434686 17.335012 20.850795 -1.199483 11.984156 7.506882 0.000000 0.000000 0.000000 -11.671577 -9.615590 -3.998378 0.510695 4.580566 12.715974 0.623187 -5.641017 -14.067762 0.350772 -3.690039 -10.219587 0.000000 0.000000 0.000000 26.769961 -0.478081 -4.151940 -0.368990 -3.901406 10.799524 -0.142449 -13.399490 -20.650446 -0.631874 -5.067810 14.105985 3.922979 -3.176107 -0.397134 4.656742 -4.285722 0.513892 2.545692 -2.130391 0.821979 -6.669378 -1.894712 -9.790201 -3.863346 0.380210 37.992488 -0.361812 -1.257763 14.907580 0.000000 0.000000 0.000000 -0.123274 5.648706 -30.454823 20.511898 -31.254185 5.794633 6.256540 7.366571 -42.760619 0.000000 0.000000 0.000000 -7.125000 0.000000 0.000000 -43.461216 68.181929 26.014870 0.000000 0.000000 0.000000 -5.852327 5.244271 -32.582309 -6.306369 -10.772110 -0.595185 -16.912759 10.864395 -16.570543 0.000000 0.000000 0.000000 7.125000 0.000000 0.000000 7.245597 12.806121 5.504796
-0.424123 17.346023 20.875727 -1.136911 12.024050 7.496201 0.000000 0.000000 0.000000 -11.751247 -9.935388 -3.707528 0.505858 4.559333 12.655881 0.554753 -5.650043 -13.282427 0.167472 -2.523789 -6.962402 0.000000 0.000000 0.000000 26.705451 -1.544384 -4.315630 -0.364708 -3.879386 10.737593 -0.160437 -12.822392 -20.109415 -0.493736 -4.496631 12.479673 4.187007 -3.312323 -0.126602 4.647583 -4.443704 0.455452 2.408797 -2.209738 0.592143 -6.336674 -1.744204 -10.017971 -4.278820 0.710098 38.281413 -0.554853 -1.137041 15.101811 0.000000 0.000000 0.000000 -0.149995 5.859801 -30.981179 20.911032 -31.724272 6.003129 6.895773 7.219073 -42.884106 0.000000 0.000000 0.000000 -7.125000 0.000000 0.000000 -43.054320 68.473253 25.999072 0.000000 0.000000 0.000000 -5.884199 6.404991 -32.950702 -6.352271 -10.848410 -0.603809 -17.097435 10.816310 -16.534092 0.000000 0.000000 0.000000 7.125000 0.000000 0.000000 7.121764 12.823939 5.405720
